<svg width="48" height="48" viewBox="0 0 48 48" fill="none" xmlns="http://www.w3.org/2000/svg">
<circle opacity="0.18" cx="24" cy="24" r="24" fill="#F15A23"/>
<g clip-path="url(#clip0_1632_3505)">
<path d="M18.3431 33.7979L16.7902 28.0023C16.241 25.9529 16.5285 23.7692 17.5894 21.9318C18.6502 20.0943 20.3976 18.7535 22.447 18.2044C24.4965 17.6552 26.6801 17.9427 28.5176 19.0036C30.3551 20.0644 31.6958 21.8118 32.245 23.8612L33.7979 29.6568L34.7638 29.398L35.2815 31.3298L17.8948 35.9885L17.3772 34.0567L18.3431 33.7979ZM18.722 27.4847L20.6539 26.967C20.3793 25.9423 20.523 24.8505 21.0535 23.9318C21.5839 23.013 22.4576 22.3426 23.4823 22.0681L22.9647 20.1362C21.4276 20.5481 20.1171 21.5537 19.3214 22.9318C18.5258 24.3099 18.3102 25.9476 18.722 27.4847ZM20.4458 14.5995L22.3777 14.0818L23.1541 16.9796L21.2223 17.4973L20.4458 14.5995ZM29.6515 15.0399L31.3833 16.0397L29.8845 18.6372L28.1517 17.6376L29.6515 15.0399ZM13.6257 20.7979L14.6255 19.0661L17.223 20.5649L16.2246 22.2983L13.6257 20.7979Z" fill="#F15A23"/>
</g>
<defs>
<clipPath id="clip0_1632_3505">
<rect width="24" height="24" fill="white" transform="translate(9.30298 15.5146) rotate(-15)"/>
</clipPath>
</defs>
</svg>
