<svg width="48" height="48" viewBox="0 0 48 48" fill="none" xmlns="http://www.w3.org/2000/svg">
<circle opacity="0.18" cx="24" cy="24" r="24" fill="#F15A23"/>
<path d="M29.1392 12.2702C29.6724 12.1273 30.2211 12.4441 30.364 12.9773L31.3364 16.6063L24.9734 27.6287L26.0645 31.7239L30.1673 30.6307L33.5325 24.8022L35.0227 30.364C35.1656 30.8971 34.8488 31.4458 34.3156 31.5887L18.8608 35.7298C18.3276 35.8727 17.7789 35.5559 17.6361 35.0227L12.9773 17.636C12.8345 17.1028 13.1512 16.5542 13.6844 16.4113L29.1392 12.2702ZM32.6187 18.386L34.3505 19.3859L28.8506 28.9119L27.4823 29.2765L27.1188 27.9121L32.6187 18.386V18.386ZM24 24L19.1704 25.2941L19.688 27.2259L24.5177 25.9318L24 24ZM25.8625 19.3598L18.1351 21.4304L18.6528 23.3622L26.3802 21.2917L25.8625 19.3598Z" fill="#F15A23"/>
</svg>
