<svg width="48" height="48" viewBox="0 0 48 48" fill="none" xmlns="http://www.w3.org/2000/svg">
<circle opacity="0.18" cx="24" cy="24" r="24" fill="#F15A23"/>
<path d="M33.1416 19.4799L35.7298 29.1392C35.7985 29.3954 35.7625 29.6683 35.6299 29.898C35.4973 30.1277 35.2789 30.2953 35.0227 30.3639L17.636 35.0227C17.3799 35.0913 17.1069 35.0554 16.8772 34.9228C16.6475 34.7902 16.4799 34.5718 16.4113 34.3156L13.8231 24.6563L33.1416 19.4799ZM32.624 17.5481L13.3055 22.7245L12.2702 18.8608C12.2015 18.6046 12.2375 18.3316 12.3701 18.1019C12.5027 17.8723 12.7211 17.7047 12.9773 17.636L30.364 12.9773C30.6201 12.9086 30.8931 12.9446 31.1228 13.0772C31.3525 13.2098 31.5201 13.4282 31.5887 13.6844L32.624 17.5481ZM27.9331 27.0872L28.4507 29.0191L32.3144 27.9838L31.7968 26.0519L27.9331 27.0872Z" fill="#F15A23"/>
</svg>
