<svg width="48" height="48" viewBox="0 0 48 48" fill="none" xmlns="http://www.w3.org/2000/svg">
<circle opacity="0.18" cx="24" cy="24" r="24" fill="#F15A23"/>
<g clip-path="url(#clip0_1338_2849)">
<path d="M15.6163 15.8936L27.2074 12.7878C27.4636 12.7192 27.7366 12.7551 27.9662 12.8877C28.1959 13.0203 28.3635 13.2387 28.4322 13.4949L33.0909 30.8816C33.1596 31.1378 33.1236 31.4107 32.991 31.6404C32.8584 31.8701 32.64 32.0377 32.3838 32.1063L20.7927 35.2122C20.5365 35.2808 20.2636 35.2449 20.0339 35.1123C19.8042 34.9797 19.6366 34.7612 19.568 34.5051L14.9092 17.1184C14.8406 16.8622 14.8765 16.5893 15.0091 16.3596C15.1417 16.1299 15.3601 15.9623 15.6163 15.8936ZM25.2942 28.8296C25.038 28.8983 24.8196 29.0659 24.687 29.2955C24.5543 29.5252 24.5184 29.7982 24.5871 30.0544C24.6557 30.3105 24.8233 30.529 25.053 30.6616C25.2827 30.7942 25.5556 30.8301 25.8118 30.7615C26.068 30.6928 26.2864 30.5252 26.419 30.2955C26.5516 30.0659 26.5875 29.7929 26.5189 29.5367C26.4503 29.2805 26.2827 29.0621 26.053 28.9295C25.8233 28.7969 25.5503 28.761 25.2942 28.8296Z" fill="#F15A23"/>
</g>
<defs>
<clipPath id="clip0_1338_2849">
<rect width="24" height="24" fill="white" transform="translate(9.30273 15.5147) rotate(-15)"/>
</clipPath>
</defs>
</svg>
