<svg width="48" height="48" viewBox="0 0 48 48" fill="none" xmlns="http://www.w3.org/2000/svg">
<circle opacity="0.18" cx="24" cy="24" r="24" fill="#F15A23"/>
<path d="M28.7596 18.5834L30.6915 18.0658C30.9476 17.9971 31.2206 18.033 31.4503 18.1657C31.68 18.2983 31.8476 18.5167 31.9162 18.7729L35.022 30.364C35.0907 30.6201 35.0547 30.8931 34.9221 31.1228C34.7895 31.3525 34.5711 31.5201 34.3149 31.5887L18.8601 35.7298C18.6039 35.7985 18.331 35.7625 18.1013 35.6299C17.8716 35.4973 17.704 35.2789 17.6354 35.0227L14.5295 23.4316C14.4609 23.1754 14.4968 22.9025 14.6294 22.6728C14.762 22.4431 14.9805 22.2755 15.2366 22.2069L17.1685 21.6892L16.9097 20.7233C16.4978 19.1862 16.7134 17.5485 17.5091 16.1704C18.3047 14.7923 19.6152 13.7867 21.1523 13.3748C22.6894 12.963 24.3271 13.1786 25.7052 13.9742C27.0833 14.7699 28.0889 16.0804 28.5008 17.6175L28.7596 18.5834ZM26.8278 19.101L26.5689 18.1351C26.2944 17.1104 25.624 16.2367 24.7052 15.7063C23.7865 15.1758 22.6947 15.0321 21.67 15.3067C20.6452 15.5812 19.7716 16.2516 19.2411 17.1704C18.7107 18.0891 18.567 19.1809 18.8415 20.2057L19.1003 21.1716L26.8278 19.101ZM23.551 26.1907L24.0687 28.1225L26.0005 27.6049L25.4829 25.673L23.551 26.1907ZM19.6873 27.226L20.205 29.1578L22.1368 28.6402L21.6192 26.7083L19.6873 27.226ZM27.4147 25.1554L27.9324 27.0873L29.8642 26.5696L29.3466 24.6378L27.4147 25.1554Z" fill="#F15A23"/>
</svg>
