<svg width="48" height="48" viewBox="0 0 48 48" fill="none" xmlns="http://www.w3.org/2000/svg">
<circle opacity="0.18" cx="24" cy="24" r="24" fill="#54BA5F"/>
<g clip-path="url(#clip0_1615_3199)">
<path d="M12.0898 23.3701L11.3363 22.065C11.2066 21.8367 11.1719 21.5665 11.2397 21.3128C11.3076 21.059 11.4725 20.8422 11.6989 20.7091L27.3012 11.7011C27.7758 11.4271 28.3828 11.5905 28.6568 12.065L36.6638 25.9336C36.7935 26.1619 36.8282 26.4321 36.7604 26.6859C36.6925 26.9396 36.5276 27.1564 36.3012 27.2895L20.6989 36.2975C20.4708 36.4289 20.1999 36.4644 19.9458 36.3961C19.6916 36.3279 19.4749 36.1615 19.3433 35.9336L18.8398 35.0615L34.4282 26.0615L28.5782 15.929L25.25 26.1644L12.0898 23.3701ZM12.6077 28.2673L16.9379 25.7673L17.9379 27.4993L13.6077 29.9993L12.6077 28.2673ZM15.1077 32.5974L22.0359 28.5974L23.0359 30.3294L16.1077 34.3294L15.1077 32.5974Z" fill="#54BA5F"/>
</g>
<defs>
<clipPath id="clip0_1615_3199">
<rect width="24" height="24" fill="white" transform="translate(7.60773 19.6074) rotate(-30)"/>
</clipPath>
</defs>
</svg>
