<svg width="48" height="48" viewBox="0 0 48 48" fill="none" xmlns="http://www.w3.org/2000/svg">
<circle opacity="0.18" cx="24" cy="24" r="24" fill="#F15A23"/>
<path d="M15 16.995C15 15.893 15.893 15 16.995 15H31.005C32.107 15 33 15.893 33 16.995V31.005C33 31.5341 32.7898 32.0415 32.4157 32.4157C32.0415 32.7898 31.5341 33 31.005 33H16.995C16.4659 33 15.9585 32.7898 15.5843 32.4157C15.2102 32.0415 15 31.5341 15 31.005V16.995ZM18.357 30H29.847C29.2026 29.0734 28.3435 28.3166 27.3431 27.7942C26.3427 27.2717 25.2306 26.9993 24.102 27C22.9734 26.9993 21.8613 27.2717 20.8609 27.7942C19.8605 28.3166 19.0014 29.0734 18.357 30V30ZM24 25C24.4596 25 24.9148 24.9095 25.3394 24.7336C25.764 24.5577 26.1499 24.2999 26.4749 23.9749C26.7999 23.6499 27.0577 23.264 27.2336 22.8394C27.4095 22.4148 27.5 21.9596 27.5 21.5C27.5 21.0404 27.4095 20.5852 27.2336 20.1606C27.0577 19.736 26.7999 19.3501 26.4749 19.0251C26.1499 18.7001 25.764 18.4423 25.3394 18.2664C24.9148 18.0905 24.4596 18 24 18C23.0717 18 22.1815 18.3687 21.5251 19.0251C20.8687 19.6815 20.5 20.5717 20.5 21.5C20.5 22.4283 20.8687 23.3185 21.5251 23.9749C22.1815 24.6313 23.0717 25 24 25V25Z" fill="#F15A23"/>
</svg>
