<svg width="48" height="48" viewBox="0 0 48 48" fill="none" xmlns="http://www.w3.org/2000/svg">
<circle opacity="0.18" cx="24" cy="24" r="24" fill="#54BA5F"/>
<path d="M14 21H17V33H14C13.7348 33 13.4804 32.8946 13.2929 32.7071C13.1054 32.5196 13 32.2652 13 32V22C13 21.7348 13.1054 21.4804 13.2929 21.2929C13.4804 21.1053 13.7348 21 14 21V21ZM19.293 19.707L25.693 13.307C25.7781 13.2217 25.8911 13.17 26.0112 13.1613C26.1314 13.1527 26.2506 13.1877 26.347 13.26L27.2 13.9C27.4369 14.0778 27.6158 14.3218 27.7143 14.6012C27.8127 14.8806 27.8262 15.1829 27.753 15.47L26.6 20H33C33.5304 20 34.0391 20.2107 34.4142 20.5858C34.7893 20.9608 35 21.4696 35 22V24.104C35.0003 24.3654 34.9493 24.6242 34.85 24.866L31.755 32.381C31.6795 32.5642 31.5513 32.7209 31.3866 32.8311C31.2219 32.9413 31.0282 33.0001 30.83 33H20C19.7348 33 19.4804 32.8946 19.2929 32.7071C19.1054 32.5196 19 32.2652 19 32V20.414C19.0001 20.1488 19.1055 19.8945 19.293 19.707Z" fill="#54BA5F"/>
</svg>
